# xmcd
#
# Track frame offsets: 
#        150
#        14230
#        49220
#        64457
#        87104
#        102874
#        125948
#        142678
#        161963
#        181945
#        203195
#        221446
#        242644
#        268759
#        298265
#        318873
#
# Disc length: 4550 seconds
#
# Revision: 0
# Processed by: cddbd v1.5.2PL0 Copyright (c) Steve Scherf et al.
# Submitted via: ExactAudioCopy v1.3
#
DISCID=fa11c410
DTITLE=Mojo Blues Band - 100% Approved - Disc 2
DYEAR=2017
DGENRE=Blues
TTITLE0=Reconsider Baby
TTITLE1=Call Me John Primer
TTITLE2=As Long As I'm Moving
TTITLE3=Ain't Nothing In Ramblin'
TTITLE4=The Pick Up
TTITLE5=Trouble In Mind
TTITLE6=Papa Wants To Knock A Jug
TTITLE7=Strange Rumors
TTITLE8=Your Next Lover
TTITLE9=Black Nights
TTITLE10=Talk To Your Daughter
TTITLE11=Gold Tailed Bird
TTITLE12=Cold Women With Warm Hearts
TTITLE13=Bring Me Flowers - Hell On Earth
TTITLE14=Black Train
TTITLE15=Tattle Tale
EXTD=
EXTT0=
EXTT1=
EXTT2=
EXTT3=
EXTT4=
EXTT5=
EXTT6=
EXTT7=
EXTT8=
EXTT9=
EXTT10=
EXTT11=
EXTT12=
EXTT13=
EXTT14=
EXTT15=
PLAYORDER=
